<svg width="50" height="50" viewBox="0 0 50 50" fill="none" xmlns="http://www.w3.org/2000/svg">
<g clip-path="url(#clip0)">
<path d="M24.9998 39.1427C32.8107 39.1427 39.1427 32.8107 39.1427 24.9997C39.1427 17.1888 32.8107 10.8568 24.9998 10.8568C17.1888 10.8568 10.8568 17.1888 10.8568 24.9997C10.8568 32.8107 17.1888 39.1427 24.9998 39.1427Z" fill="#FFD347"/>
<path d="M25 10.8575C24.4881 10.8575 23.9826 10.8854 23.4847 10.9383C30.5829 11.6945 36.112 17.7012 36.112 24.9999C36.112 32.2987 30.5828 38.3055 23.4847 39.0616C23.9826 39.1148 24.488 39.1425 25 39.1425C32.8107 39.1425 39.1426 32.8107 39.1426 24.9999C39.1426 17.1892 32.8108 10.8575 25 10.8575Z" fill="#FFBE31"/>
<path d="M25 39.8981C16.7852 39.8981 10.1019 33.2148 10.1019 25C10.1019 21.6246 11.2621 18.318 13.3689 15.6894C13.6298 15.3637 14.1054 15.3113 14.4309 15.5723C14.7565 15.8334 14.809 16.3088 14.548 16.6344C12.6278 19.0302 11.6129 21.9228 11.6129 25C11.6129 32.3816 17.6184 38.3871 25 38.3871C32.3817 38.3871 38.3871 32.3817 38.3871 25C38.3871 17.6182 32.3817 11.6128 25 11.6128C21.9639 11.6128 19.1016 12.6037 16.7225 14.478C16.3946 14.736 15.9195 14.6797 15.6613 14.3521C15.4031 14.0243 15.4595 13.5492 15.7871 13.291C18.4355 11.2045 21.6212 10.1017 24.9999 10.1017C33.2148 10.1017 39.8981 16.785 39.8981 24.9999C39.8981 33.2147 33.2149 39.8981 25 39.8981Z" fill="#E0B838"/>
<path d="M25 5.55156C24.5827 5.55156 24.2444 5.21338 24.2444 4.796V0.755566C24.2444 0.338184 24.5827 0 25 0C25.4172 0 25.7555 0.338184 25.7555 0.755566V4.79609C25.7555 5.21338 25.4172 5.55156 25 5.55156Z" fill="#FFC200"/>
<path d="M14.8987 8.25858C14.6376 8.25858 14.3837 8.12314 14.2437 7.88075L12.2235 4.38163C12.0149 4.0203 12.1387 3.55819 12.5001 3.3495C12.8615 3.1411 13.3235 3.26454 13.5322 3.62607L15.5524 7.12519C15.761 7.48651 15.6373 7.94862 15.2759 8.15732C15.1568 8.22587 15.0269 8.25858 14.8987 8.25858Z" fill="#FFC200"/>
<path d="M7.50232 15.6537C7.37419 15.6537 7.24421 15.6211 7.12527 15.5523L3.62605 13.5321C3.26472 13.3235 3.14089 12.8614 3.34949 12.5C3.55808 12.1386 4.02019 12.0149 4.38162 12.2234L7.88083 14.2436C8.24216 14.4522 8.36599 14.9143 8.1574 15.2758C8.01736 15.5182 7.76345 15.6537 7.50232 15.6537Z" fill="#FFC200"/>
<path d="M4.79609 25.7556H0.755566C0.338281 25.7556 0 25.4174 0 25C0 24.5826 0.338281 24.2444 0.755566 24.2444H4.79619C5.21348 24.2444 5.55176 24.5826 5.55176 25C5.55176 25.4174 5.21338 25.7556 4.79609 25.7556Z" fill="#FFC200"/>
<path d="M4.00437 37.8778C3.74323 37.8778 3.48933 37.7424 3.34939 37.5C3.14079 37.1387 3.26452 36.6766 3.62595 36.4679L7.12517 34.4476C7.4865 34.2392 7.94861 34.3627 8.1573 34.7242C8.3659 35.0855 8.24217 35.5476 7.88074 35.7563L4.38152 37.7766C4.26247 37.8452 4.13249 37.8778 4.00437 37.8778Z" fill="#FFC200"/>
<path d="M12.8771 46.752C12.749 46.752 12.619 46.7194 12.5001 46.6506C12.1387 46.442 12.0149 45.9799 12.2235 45.6185L14.2437 42.1193C14.4523 41.7578 14.9144 41.6342 15.2759 41.8427C15.6372 42.0513 15.761 42.5134 15.5524 42.8748L13.5322 46.374C13.3922 46.6164 13.1383 46.752 12.8771 46.752Z" fill="#FFC200"/>
<path d="M25 50C24.5827 50 24.2444 49.6618 24.2444 49.2445V45.2039C24.2444 44.7865 24.5827 44.4484 25 44.4484C25.4172 44.4484 25.7555 44.7865 25.7555 45.2039V49.2445C25.7555 49.6618 25.4172 50 25 50Z" fill="#FFC200"/>
<path d="M37.1229 46.752C36.8617 46.752 36.6078 46.6165 36.4679 46.3741L34.4477 42.8749C34.2391 42.5136 34.3628 42.0515 34.7242 41.8428C35.0855 41.6344 35.5477 41.7578 35.7564 42.1194L37.7766 45.6186C37.9852 45.9799 37.8614 46.442 37.5 46.6507C37.381 46.7194 37.2511 46.752 37.1229 46.752Z" fill="#FFC200"/>
<path d="M45.9956 37.8778C45.8675 37.8778 45.7375 37.8452 45.6185 37.7765L42.1193 35.7562C41.758 35.5476 41.6342 35.0855 41.8428 34.7241C42.0514 34.3627 42.5135 34.2391 42.8749 34.4475L46.3741 36.4678C46.7354 36.6764 46.8593 37.1385 46.6507 37.4999C46.5106 37.7423 46.2567 37.8778 45.9956 37.8778Z" fill="#FFC200"/>
<path d="M49.2444 25.7556H45.2038C44.7865 25.7556 44.4482 25.4174 44.4482 25C44.4482 24.5826 44.7865 24.2444 45.2038 24.2444H49.2444C49.6617 24.2444 50 24.5826 50 25C50 25.4174 49.6617 25.7556 49.2444 25.7556Z" fill="#FFC200"/>
<path d="M42.4978 15.6537C42.2366 15.6537 41.9827 15.5182 41.8428 15.2759C41.6342 14.9145 41.7579 14.4524 42.1194 14.2437L45.6186 12.2235C45.9799 12.0151 46.442 12.1386 46.6507 12.5001C46.8593 12.8614 46.7356 13.3235 46.3742 13.5322L42.8749 15.5524C42.7559 15.6211 42.6259 15.6537 42.4978 15.6537Z" fill="#FFC200"/>
<path d="M35.1012 8.25858C34.9731 8.25858 34.8431 8.22596 34.7242 8.15721C34.3629 7.94861 34.239 7.48651 34.4476 7.12508L36.4678 3.62597C36.6764 3.26454 37.1385 3.14091 37.5 3.3494C37.8613 3.558 37.9851 4.02011 37.7765 4.38153L35.7563 7.88065C35.6163 8.12303 35.3623 8.25858 35.1012 8.25858Z" fill="#FFC200"/>
</g>
<defs>
<clipPath id="clip0">
<rect width="50" height="50" fill="white"/>
</clipPath>
</defs>
</svg>
